<svg fill="none" viewBox="0 0 110 77" xmlns="http://www.w3.org/2000/svg"><g><text fill="#000" font-family="monospace" font-size="0.15em" stroke-width="0.01" transform="translate(-0.6 0)" x="5.0" y="2">14:00</text><line stroke-dasharray="0.5, 0.1" stroke-width="0.1" stroke="#000" x1="5.0" x2="5.0" y1="2.5" y2="77"></line></g><g><text fill="#000" font-family="monospace" font-size="0.15em" stroke-width="0.01" transform="translate(-1.7 0)" x="9.166666507720947" y="4.5">14:05</text><line stroke-dasharray="0.5, 0.1" stroke-width="0.1" stroke="#000" x1="9.166666507720947" x2="9.166666507720947" y1="5.0" y2="77"></line></g><g><text fill="#000" font-family="monospace" font-size="0.15em" stroke-width="0.01" transform="translate(-1.7 0)" x="13.333333015441895" y="2">14:10</text><line stroke-dasharray="0.5, 0.1" stroke-width="0.1" stroke="#000" x1="13.333333015441895" x2="13.333333015441895" y1="2.5" y2="77"></line></g><g><text fill="#000" font-family="monospace" font-size="0.15em" stroke-width="0.01" transform="translate(-1.7 0)" x="17.5" y="4.5">14:15</text><line stroke-dasharray="0.5, 0.1" stroke-width="0.1" stroke="#000" x1="17.5" x2="17.5" y1="5.0" y2="77"></line></g><g><text fill="#000" font-family="monospace" font-size="0.15em" stroke-width="0.01" transform="translate(-1.7 0)" x="21.66666603088379" y="2">14:20</text><line stroke-dasharray="0.5, 0.1" stroke-width="0.1" stroke="#000" x1="21.66666603088379" x2="21.66666603088379" y1="2.5" y2="77"></line></g><g><text fill="#000" font-family="monospace" font-size="0.15em" stroke-width="0.01" transform="translate(-1.7 0)" x="25.83333396911621" y="4.5">14:25</text><line stroke-dasharray="0.5, 0.1" stroke-width="0.1" stroke="#000" x1="25.83333396911621" x2="25.83333396911621" y1="5.0" y2="77"></line></g><g><text fill="#000" font-family="monospace" font-size="0.15em" stroke-width="0.01" transform="translate(-1.7 0)" x="30.0" y="2">14:30</text><line stroke-dasharray="0.5, 0.1" stroke-width="0.1" stroke="#000" x1="30.0" x2="30.0" y1="2.5" y2="77"></line></g><g><text fill="#000" font-family="monospace" font-size="0.15em" stroke-width="0.01" transform="translate(-1.7 0)" x="34.16666603088379" y="4.5">14:35</text><line stroke-dasharray="0.5, 0.1" stroke-width="0.1" stroke="#000" x1="34.16666603088379" x2="34.16666603088379" y1="5.0" y2="77"></line></g><g><text fill="#000" font-family="monospace" font-size="0.15em" stroke-width="0.01" transform="translate(-1.7 0)" x="38.33333206176758" y="2">14:40</text><line stroke-dasharray="0.5, 0.1" stroke-width="0.1" stroke="#000" x1="38.33333206176758" x2="38.33333206176758" y1="2.5" y2="77"></line></g><g><text fill="#000" font-family="monospace" font-size="0.15em" stroke-width="0.01" transform="translate(-1.7 0)" x="42.5" y="4.5">14:45</text><line stroke-dasharray="0.5, 0.1" stroke-width="0.1" stroke="#000" x1="42.5" x2="42.5" y1="5.0" y2="77"></line></g><g><text fill="#000" font-family="monospace" font-size="0.15em" stroke-width="0.01" transform="translate(-1.7 0)" x="46.66666793823242" y="2">14:50</text><line stroke-dasharray="0.5, 0.1" stroke-width="0.1" stroke="#000" x1="46.66666793823242" x2="46.66666793823242" y1="2.5" y2="77"></line></g><g><text fill="#000" font-family="monospace" font-size="0.15em" stroke-width="0.01" transform="translate(-1.7 0)" x="50.83333206176758" y="4.5">14:55</text><line stroke-dasharray="0.5, 0.1" stroke-width="0.1" stroke="#000" x1="50.83333206176758" x2="50.83333206176758" y1="5.0" y2="77"></line></g><g><text fill="#000" font-family="monospace" font-size="0.15em" stroke-width="0.01" transform="translate(-1.7 0)" x="55.0" y="2">15:00</text><line stroke-dasharray="0.5, 0.1" stroke-width="0.1" stroke="#000" x1="55.0" x2="55.0" y1="2.5" y2="77"></line></g><g><text fill="#000" font-family="monospace" font-size="0.15em" stroke-width="0.01" transform="translate(-1.7 0)" x="59.16666793823242" y="4.5">15:05</text><line stroke-dasharray="0.5, 0.1" stroke-width="0.1" stroke="#000" x1="59.16666793823242" x2="59.16666793823242" y1="5.0" y2="77"></line></g><g><text fill="#000" font-family="monospace" font-size="0.15em" stroke-width="0.01" transform="translate(-1.7 0)" x="63.33333206176758" y="2">15:10</text><line stroke-dasharray="0.5, 0.1" stroke-width="0.1" stroke="#000" x1="63.33333206176758" x2="63.33333206176758" y1="2.5" y2="77"></line></g><g><text fill="#000" font-family="monospace" font-size="0.15em" stroke-width="0.01" transform="translate(-1.7 0)" x="67.5" y="4.5">15:15</text><line stroke-dasharray="0.5, 0.1" stroke-width="0.1" stroke="#000" x1="67.5" x2="67.5" y1="5.0" y2="77"></line></g><g><text fill="#000" font-family="monospace" font-size="0.15em" stroke-width="0.01" transform="translate(-1.7 0)" x="71.66666412353516" y="2">15:20</text><line stroke-dasharray="0.5, 0.1" stroke-width="0.1" stroke="#000" x1="71.66666412353516" x2="71.66666412353516" y1="2.5" y2="77"></line></g><g><text fill="#000" font-family="monospace" font-size="0.15em" stroke-width="0.01" transform="translate(-1.7 0)" x="75.83333587646484" y="4.5">15:25</text><line stroke-dasharray="0.5, 0.1" stroke-width="0.1" stroke="#000" x1="75.83333587646484" x2="75.83333587646484" y1="5.0" y2="77"></line></g><g><text fill="#000" font-family="monospace" font-size="0.15em" stroke-width="0.01" transform="translate(-1.7 0)" x="80.0" y="2">15:30</text><line stroke-dasharray="0.5, 0.1" stroke-width="0.1" stroke="#000" x1="80.0" x2="80.0" y1="2.5" y2="77"></line></g><g><text fill="#000" font-family="monospace" font-size="0.15em" stroke-width="0.01" transform="translate(-1.7 0)" x="84.16666412353516" y="4.5">15:35</text><line stroke-dasharray="0.5, 0.1" stroke-width="0.1" stroke="#000" x1="84.16666412353516" x2="84.16666412353516" y1="5.0" y2="77"></line></g><g><text fill="#000" font-family="monospace" font-size="0.15em" stroke-width="0.01" transform="translate(-1.7 0)" x="88.33333587646484" y="2">15:40</text><line stroke-dasharray="0.5, 0.1" stroke-width="0.1" stroke="#000" x1="88.33333587646484" x2="88.33333587646484" y1="2.5" y2="77"></line></g><g><text fill="#000" font-family="monospace" font-size="0.15em" stroke-width="0.01" transform="translate(-1.7 0)" x="92.5" y="4.5">15:45</text><line stroke-dasharray="0.5, 0.1" stroke-width="0.1" stroke="#000" x1="92.5" x2="92.5" y1="5.0" y2="77"></line></g><g><text fill="#000" font-family="monospace" font-size="0.15em" stroke-width="0.01" transform="translate(-1.7 0)" x="96.66666412353516" y="2">15:50</text><line stroke-dasharray="0.5, 0.1" stroke-width="0.1" stroke="#000" x1="96.66666412353516" x2="96.66666412353516" y1="2.5" y2="77"></line></g><g><text fill="#000" font-family="monospace" font-size="0.15em" stroke-width="0.01" transform="translate(-1.7 0)" x="100.83333587646484" y="4.5">15:55</text><line stroke-dasharray="0.5, 0.1" stroke-width="0.1" stroke="#000" x1="100.83333587646484" x2="100.83333587646484" y1="5.0" y2="77"></line></g><g><text fill="#000" font-family="monospace" font-size="0.15em" stroke-width="0.01" transform="translate(-4.1 0)" x="105.0" y="2">16:00</text><line stroke-dasharray="0.5, 0.1" stroke-width="0.1" stroke="#000" x1="105.0" x2="105.0" y1="2.5" y2="77"></line></g></svg>