<svg fill="none" viewBox="0 0 110 77" xmlns="http://www.w3.org/2000/svg"><g><text fill="#000" font-family="monospace" font-size="0.15em" stroke-width="0.01" transform="translate(-0.3 0)" x="0.2%" y="2">8:00</text><line stroke-dasharray="0.5, 0.1" stroke-width="0.1" stroke="#000" x1="0.2%" x2="0.2%" y1="2.5" y2="77"></line></g><g><text fill="#000" font-family="monospace" font-size="0.15em" stroke-width="0.01" transform="translate(-1.7 0)" x="4.1666665%" y="4.5">8:05</text><line stroke-dasharray="0.5, 0.1" stroke-width="0.1" stroke="#000" x1="4.1666665%" x2="4.1666665%" y1="5.0" y2="77"></line></g><g><text fill="#000" font-family="monospace" font-size="0.15em" stroke-width="0.01" transform="translate(-1.7 0)" x="8.333333%" y="2">8:10</text><line stroke-dasharray="0.5, 0.1" stroke-width="0.1" stroke="#000" x1="8.333333%" x2="8.333333%" y1="2.5" y2="77"></line></g><g><text fill="#000" font-family="monospace" font-size="0.15em" stroke-width="0.01" transform="translate(-1.7 0)" x="12.5%" y="4.5">8:15</text><line stroke-dasharray="0.5, 0.1" stroke-width="0.1" stroke="#000" x1="12.5%" x2="12.5%" y1="5.0" y2="77"></line></g><g><text fill="#000" font-family="monospace" font-size="0.15em" stroke-width="0.01" transform="translate(-1.7 0)" x="16.666666%" y="2">8:20</text><line stroke-dasharray="0.5, 0.1" stroke-width="0.1" stroke="#000" x1="16.666666%" x2="16.666666%" y1="2.5" y2="77"></line></g><g><text fill="#000" font-family="monospace" font-size="0.15em" stroke-width="0.01" transform="translate(-1.7 0)" x="20.833334%" y="4.5">8:25</text><line stroke-dasharray="0.5, 0.1" stroke-width="0.1" stroke="#000" x1="20.833334%" x2="20.833334%" y1="5.0" y2="77"></line></g><g><text fill="#000" font-family="monospace" font-size="0.15em" stroke-width="0.01" transform="translate(-1.7 0)" x="25.0%" y="2">8:30</text><line stroke-dasharray="0.5, 0.1" stroke-width="0.1" stroke="#000" x1="25.0%" x2="25.0%" y1="2.5" y2="77"></line></g><g><text fill="#000" font-family="monospace" font-size="0.15em" stroke-width="0.01" transform="translate(-1.7 0)" x="29.166666%" y="4.5">8:35</text><line stroke-dasharray="0.5, 0.1" stroke-width="0.1" stroke="#000" x1="29.166666%" x2="29.166666%" y1="5.0" y2="77"></line></g><g><text fill="#000" font-family="monospace" font-size="0.15em" stroke-width="0.01" transform="translate(-1.7 0)" x="33.333332%" y="2">8:40</text><line stroke-dasharray="0.5, 0.1" stroke-width="0.1" stroke="#000" x1="33.333332%" x2="33.333332%" y1="2.5" y2="77"></line></g><g><text fill="#000" font-family="monospace" font-size="0.15em" stroke-width="0.01" transform="translate(-1.7 0)" x="37.5%" y="4.5">8:45</text><line stroke-dasharray="0.5, 0.1" stroke-width="0.1" stroke="#000" x1="37.5%" x2="37.5%" y1="5.0" y2="77"></line></g><g><text fill="#000" font-family="monospace" font-size="0.15em" stroke-width="0.01" transform="translate(-1.7 0)" x="41.666668%" y="2">8:50</text><line stroke-dasharray="0.5, 0.1" stroke-width="0.1" stroke="#000" x1="41.666668%" x2="41.666668%" y1="2.5" y2="77"></line></g><g><text fill="#000" font-family="monospace" font-size="0.15em" stroke-width="0.01" transform="translate(-1.7 0)" x="45.833332%" y="4.5">8:55</text><line stroke-dasharray="0.5, 0.1" stroke-width="0.1" stroke="#000" x1="45.833332%" x2="45.833332%" y1="5.0" y2="77"></line></g><g><text fill="#000" font-family="monospace" font-size="0.15em" stroke-width="0.01" transform="translate(-1.7 0)" x="50.0%" y="2">9:00</text><line stroke-dasharray="0.5, 0.1" stroke-width="0.1" stroke="#000" x1="50.0%" x2="50.0%" y1="2.5" y2="77"></line></g><g><text fill="#000" font-family="monospace" font-size="0.15em" stroke-width="0.01" transform="translate(-1.7 0)" x="54.166668%" y="4.5">9:05</text><line stroke-dasharray="0.5, 0.1" stroke-width="0.1" stroke="#000" x1="54.166668%" x2="54.166668%" y1="5.0" y2="77"></line></g><g><text fill="#000" font-family="monospace" font-size="0.15em" stroke-width="0.01" transform="translate(-1.7 0)" x="58.333332%" y="2">9:10</text><line stroke-dasharray="0.5, 0.1" stroke-width="0.1" stroke="#000" x1="58.333332%" x2="58.333332%" y1="2.5" y2="77"></line></g><g><text fill="#000" font-family="monospace" font-size="0.15em" stroke-width="0.01" transform="translate(-1.7 0)" x="62.5%" y="4.5">9:15</text><line stroke-dasharray="0.5, 0.1" stroke-width="0.1" stroke="#000" x1="62.5%" x2="62.5%" y1="5.0" y2="77"></line></g><g><text fill="#000" font-family="monospace" font-size="0.15em" stroke-width="0.01" transform="translate(-1.7 0)" x="66.666664%" y="2">9:20</text><line stroke-dasharray="0.5, 0.1" stroke-width="0.1" stroke="#000" x1="66.666664%" x2="66.666664%" y1="2.5" y2="77"></line></g><g><text fill="#000" font-family="monospace" font-size="0.15em" stroke-width="0.01" transform="translate(-1.7 0)" x="70.833336%" y="4.5">9:25</text><line stroke-dasharray="0.5, 0.1" stroke-width="0.1" stroke="#000" x1="70.833336%" x2="70.833336%" y1="5.0" y2="77"></line></g><g><text fill="#000" font-family="monospace" font-size="0.15em" stroke-width="0.01" transform="translate(-1.7 0)" x="75.0%" y="2">9:30</text><line stroke-dasharray="0.5, 0.1" stroke-width="0.1" stroke="#000" x1="75.0%" x2="75.0%" y1="2.5" y2="77"></line></g><g><text fill="#000" font-family="monospace" font-size="0.15em" stroke-width="0.01" transform="translate(-1.7 0)" x="79.166664%" y="4.5">9:35</text><line stroke-dasharray="0.5, 0.1" stroke-width="0.1" stroke="#000" x1="79.166664%" x2="79.166664%" y1="5.0" y2="77"></line></g><g><text fill="#000" font-family="monospace" font-size="0.15em" stroke-width="0.01" transform="translate(-1.7 0)" x="83.333336%" y="2">9:40</text><line stroke-dasharray="0.5, 0.1" stroke-width="0.1" stroke="#000" x1="83.333336%" x2="83.333336%" y1="2.5" y2="77"></line></g><g><text fill="#000" font-family="monospace" font-size="0.15em" stroke-width="0.01" transform="translate(-1.7 0)" x="87.5%" y="4.5">9:45</text><line stroke-dasharray="0.5, 0.1" stroke-width="0.1" stroke="#000" x1="87.5%" x2="87.5%" y1="5.0" y2="77"></line></g><g><text fill="#000" font-family="monospace" font-size="0.15em" stroke-width="0.01" transform="translate(-1.7 0)" x="91.666664%" y="2">9:50</text><line stroke-dasharray="0.5, 0.1" stroke-width="0.1" stroke="#000" x1="91.666664%" x2="91.666664%" y1="2.5" y2="77"></line></g><g><text fill="#000" font-family="monospace" font-size="0.15em" stroke-width="0.01" transform="translate(-1.7 0)" x="95.833336%" y="4.5">9:55</text><line stroke-dasharray="0.5, 0.1" stroke-width="0.1" stroke="#000" x1="95.833336%" x2="95.833336%" y1="5.0" y2="77"></line></g><g><text fill="#000" font-family="monospace" font-size="0.15em" stroke-width="0.01" transform="translate(-5.6 0)" x="99.8%" y="2">10:00</text><line stroke-dasharray="0.5, 0.1" stroke-width="0.1" stroke="#000" x1="99.8%" x2="99.8%" y1="2.5" y2="77"></line></g></svg>